<mxfile host="app.diagrams.net" modified="2022-04-07T10:45:19.728Z" agent="5.0 (Macintosh; Intel Mac OS X 10_15_7) AppleWebKit/605.1.15 (KHTML, like Gecko) Version/15.4 Safari/605.1.15" etag="5EAkpUQV9GHqrGJE2Q74" version="17.4.0" type="github">
  <diagram id="3wpOiT_2_U0ZZt2UYOHH" name="Page-1">
    <mxGraphModel dx="1527" dy="1051" grid="1" gridSize="10" guides="1" tooltips="1" connect="1" arrows="1" fold="1" page="1" pageScale="1" pageWidth="827" pageHeight="1169" math="0" shadow="0">
      <root>
        <mxCell id="0" />
        <mxCell id="1" parent="0" />
        <mxCell id="USZ9KHrKZH-KBfqmZn_r-12" style="edgeStyle=orthogonalEdgeStyle;rounded=0;orthogonalLoop=1;jettySize=auto;html=1;exitX=0.5;exitY=1;exitDx=0;exitDy=0;fillColor=#b1ddf0;strokeColor=#10739e;" edge="1" parent="1" source="USZ9KHrKZH-KBfqmZn_r-1" target="USZ9KHrKZH-KBfqmZn_r-2">
          <mxGeometry relative="1" as="geometry" />
        </mxCell>
        <mxCell id="USZ9KHrKZH-KBfqmZn_r-13" style="edgeStyle=orthogonalEdgeStyle;rounded=0;orthogonalLoop=1;jettySize=auto;html=1;exitX=1;exitY=0.5;exitDx=0;exitDy=0;" edge="1" parent="1" source="USZ9KHrKZH-KBfqmZn_r-1" target="USZ9KHrKZH-KBfqmZn_r-4">
          <mxGeometry relative="1" as="geometry" />
        </mxCell>
        <mxCell id="USZ9KHrKZH-KBfqmZn_r-1" value="&lt;b&gt;&lt;font style=&quot;font-size: 12px&quot;&gt;TodoItem Service&lt;br&gt;&lt;div style=&quot;text-align: left&quot;&gt;&lt;span style=&quot;font-weight: normal&quot;&gt;[PUT] &amp;nbsp; &amp;nbsp;/add&lt;/span&gt;&lt;/div&gt;&lt;/font&gt;&lt;/b&gt;&lt;div style=&quot;text-align: left&quot;&gt;&lt;font style=&quot;font-size: 12px&quot;&gt;[GET] &amp;nbsp; &amp;nbsp;/get/{todoId}&lt;/font&gt;&lt;/div&gt;&lt;div style=&quot;text-align: left&quot;&gt;&lt;font style=&quot;font-size: 12px&quot;&gt;[POST] &amp;nbsp;/update{todoId}&lt;/font&gt;&lt;/div&gt;" style="rounded=1;whiteSpace=wrap;html=1;" vertex="1" parent="1">
          <mxGeometry x="40" y="40" width="150" height="90" as="geometry" />
        </mxCell>
        <mxCell id="USZ9KHrKZH-KBfqmZn_r-2" value="todo_items" style="shape=image;verticalLabelPosition=bottom;labelBackgroundColor=default;verticalAlign=top;aspect=fixed;imageAspect=0;image=data:image/png,iVBORw0KGgoAAAANSUhEUgAAAO8AAAE8CAYAAAAoreaMAAAk5UlEQVR42u2dfWxV533H/c+WPzYp/WMSUqUKTVVHtarLmm4lSStlqraxrZWYNK2kqBOa2hRVakO0/sFSTSVL26RZN5akCdCkoUkTWAuJg3lLIE4gxsbBgLkG4xeMMcbYGGMb2/gVQ8/u93CP89yfz305556X5znn+0hfhfBiX9/7fM7v9/zenqoqLi4uLi7/y7Kse7J6UGiDqtu3b2/63e9+936I2i+/Z1ZrXV7X3fzEuJIO5PLcZl/lwABAcqC0WQlY2Z9j2oEfDxcFegf0pdwJXLqBeVduc64UVvGCxVUIdNW6r8u9f/dwN3GFBemDOddxwWoSw1DAHshZ7605uPFQXMYdyFUOpEuzWpGDtDopbm1SLHbOJV/PMzdBXZbVmuyG2Jhz5aaJiJmWOmel8dBdwp2dPFDvViwqQB3l1k8s0BeyD+TtjoXm7jfT/V2LD5GuL1d2DxzNudyr6G7rGfVdmYv2MtLLVQrm5uxeeRJpPNIT35l1XS7twMXlF+TRnJu9lvnokFM2Oes6wG3HFRLMbbkAGFNUBJbL8ODXRotFJJ6AXZFWYHuHmq3zV48uUl3nfxfV22e+Y+1p+SdPOtzxZNGv2dyzw/W1jE8PEWSuPGCXILyfxICTs+nrz/3chqL27HoFoq9mwbvXWO3J/MXCz7L39Nc+Av/im/bPfG3iYlJd67Wpj1znrOx20+FsvfxOPpiZvzUayqC19/S9eYA3nNtsPNwo7MmVci6nldV4jUz0LQB6oPVReyPuO/15ghmQdme+fMeV73zaajy/1Qb71u15WmOdoM2VI2pdiohzZ9OFX1vvtf/wDqQtnyNgcUHd8qXsQ/Jf7IdmW3+t9pY6Z41xNl6SFGiX5twL7dbV8fN2YMZ2d+nqmuGCt/y57X7DSrcPHLKmZsd1hngpoQ3wfIqn+L7Tq+n2JslCn3rQeufMOuvY+V9bg2PntQI5x8BSk9zjrbpY1saul6z9Z/6V7m+KVJO533q79d+sU7011o3pEZ0gXqIrtHflAlGxde3cvDVrtVyqsYNKu1u+yI1M2dp1aoVV2/Zjq2vwWNzuNNhAx9NdWqV84urgcYBFoQKtK1US5MxfWgfP/kesIOdYWRH7uRZTJ+J4AwgsFRTIPUOZuCCujsWVzn7TVVG7yCjNQ6XS3swXuPmoQFXd/DfW8Qs7rbmsJxeDK70qsrNtrrk50igxrCw3GRV+sOverDXeYA1e74k6oLUp1LNw9osvQzNzlNCiUIKbioojn1zT8h3r8ui5KK0w2FpmtJuMUkQWTVA6aF8W4l2ZNVb30KnICjwCdaOzX2xNVHlZ0zttqORCXN38sDUeXd54jRHgIt2D/lJuEkp3vXXqs1ZD17aoGifWaQ0uzrUsqKBM0xsnv2INXO+OAuANfsBdGfarQvcO87SUqXqz+TNW5tJ7UQC83lN9ctjBKXTycANQpmtP5s+sQx0vR+FGlzdEPuzLtNAowA+eSlIwqybzo1ABzg2vuLuU1V0fJrgMTFFJtcC1bb8Mu5BjezFw7wlz0gXOuPygqSRHopsuhH4PwJpC7nJoTQaoS2Zwikq6Xj32SWt08mqoHUmFglShWV3MhOKHS6Xh/Lv39HNhW9+VefDmZu7Q6lKU/ta3Oq9TKMwbClCrzA+VSk974WetM30NYVvfZQ68y8P8LujB5YdKpcl1/qBzZ9jwrl3oGArzu2CmFD9UKl3VV0+EnTZ60oF3Q5jfiMEqKnX9wCEHrRbOvWHfF8T8LpW2Rv5jF94OvXHfhndobCrUmR/9Ix38UKnU6DfHP21dHg13+PvU3PwNG96WnmuXwj5d78r8Iz9YKhX6v+PfDb3NaGBsetqG93Brf+iDenCvDD9YKg1tgr3DHeGPihoYH7fhff1IVySDa/ee/i4/YCrRZ93fHP9BJDNy6i+MjNjw/qC65WgU33Bmfsra3fJ3/KBFQn/Hic8s6PVjn7K2Nv5xnl6sX2o9c3hJWdpwoMqXnjj4ewW/5i8blua9nh0n/nTh9WLD8nO8o181ftWanBmLBN6dLQODNrz3bWl4v3comqsSx6au2re6Jd11wsZGmZyz4X/+wccXYPjRwd/3DZnO+q/3Pmb/fC/Ufdz+mfEgwvuAbpukg/ti/b2hlkSqa3J23vr2/nM9C/BuPdwZ1VS8OwBnvmw8nA6YDpSwXkmEMij9pPYP8uCGBYfnYTq4Lzf8lXVlLLqLv+u7R6yH9nRcWID3/i0N1thkdFc9TM2NW3tavqE9pNubPm1vtGezmw6WhRCGo5+9/zH7PcZ7jfcc770JDfivHftmlONgrflbt631tecXw7v3ZHRPj4XJGu3P2bWgcdeiOpaUkOql/zn0R9aW+k9Yrzf9iVZWGg+XN079OPK7jToGJ6yv7+lYDO9XXm60+odvRA7whaGT9h2qUb7xOI9urvsEQTVQThANFnpX1vpFHVHeevTBKLqGXM+6sLqu8EKPVWeypvlW5C8Mw7vqOjdbe0+HE9F9pfGT9lOcmz95+mntH9oPYljnMGHG10fN8vTcpBXH2n6q3wa3ILzQjsZuK641OnnF2n/m+xWlIHAWwRuNwEhSI7tUdDCj3HFb07rQSx6LrUzf9QVwi8ILdV4eteJcgBgXH5cLMT4knFkR+OAGpmQKC7lyRLe9QGsHzk79MJKKqeIszFnf2t9ZPrw4/3ZfGbPiXjemR6x3z/406/p+zt3CHvsUgaU8FaPAI4NV3uNilWEsEA+pyTwdafqn8Aipm9aGQ9154JaEVyeAsRDVy/Tut95sXmm/8Sh64GakgkhR3ck5f8Z69cN/sI5d2BdZlZRfcMuCVzeAnXVtvN96r32b9ZN37+UGpCrWrsyz1oWhVq32eDFwy4ZXV4CdCDXe9Hdaf0WQKU969cN/t9M9ulhZL+B6gtfRwZY+S9dFkCmTgXVWz/Ck9ciBrqLg+oIXenrfmewPP2fpvuBaYxTJ9uP/yY2bUj37wSr7eHXuyqnYcrNe1qGuayWhrQheaPWrx7R0o4sFuxDuxzhOPH25sRPa+PDuvfb5FdY1ynrjICqnnm/sLRvciuB1hFroOKqxgnCxkQY40fOu/WH/7P0V3PwG6pdHH7Eta3t/U2TteHG5yYHDCz287XjsBR3BBAlGbPcKrvbO5qcJtIag7j29xX7gotIp6oaAMIJSr5y47BnaQOF19OyBNmt4YtpK0sI5CRsFGwYbhy53NK4vHp444sD91aFQIsiFlj6cbWXFVKzwqhHpmbl5K8kL0UpsKmwugI3NRrC9A4rMAN4/ZAnwfoZ5s7wOq2voxkJXUKUKBV7HlW7svGLkeTiI4Bg2omOxHbjT5Ipvrv9mHpyOBU2aFS139Y1OWS819QUCbejwqlHpQ639ibfEfpazmVULDiEA48AuFZV1L/T9oYaumoXXihiB8zOYGjAK29J6jSJrA6+E2IT8sOkL+W31wSBlUgrFZGg31l8MBdrI4VXLLJFeinJWFhdXVIGo1oHx0KGNDV5Vm2vbrbOXhvmpcxmf8jnYMeQrV2ssvGpwCxFqWmMukxYGwVWSp00EvG7WOI1Rai79FyZaIEcbVLonUfCqZ+PXjnRZmZ5rjFRzxQ4shpw/VdcTO7BGwCuF2xwIMldUa2hixrawugFrJLwSZBSAJK0UkyvehQYBBJ5KNcET3oD06I6T1ltNPXZjBK0yl1d3+HjvqD0LudI6Y8IbgDAo4Ehbv3X1+hR3J1feQh4WxRP72gaNsa6pglcGvdDphMouWGZWd6Xv3IqiCcAaVeEE4Q3ZzUYUG9Y5qvuIucJfmESBMyuiwmgAMNENJrw+9MTu0zbQsNAAmhZa/7Mq3F+AiiKJJLjAhDfgRgq43Kj8QooqjpsTeUa9bbfSIagE1zfoljrCmzKhlBNQO5YaYNNaV2ZFHUBhSRH5TYvbS3g1dMEdiw24kY8G3FDaUlk4hwJMqLFnxIbTsaBpdXUJb0JccgjtkYAccoJoqnQpREHk1gERcoJDjmpa70BJ15bwUmVY91LaVHd+ASgvolUkvFTcee7tzdzkhJcivBThpQgvRXgpwkt4CS/hpQgvRXgpwksRXorwEl6K8FKElyK8FOGlCC9FeAkvNzzhpQgvRXgpwksRXorwEl6K8FKElyK8FOGlCC9FeAkvRXgpwksRXorwUoSXIryElyK8FOGlCC9FeCnCSxFewksRXorwUoSXIrwU4aUIL+GlCC9FeDvsS7F5GyHhpTSFF9C9cuKyfS9v19AN+77eSteVsWmrdWDcOtR1zQb7kQNdBJTwVn4HrnoBNrT1cKf9+49VZ7R6zfK11nUO2kAAro7BibzLsAFfudbv+cZeGyp8nflbtyO70Bvf72DHkPVUXQ9hJbzuenrfGetgS5/VP3zD90bDvz17adiGBhCtfvVYqK/50R0nbVDxPYcnpiuCZPbmLRuUxp4Ra2fLgA01oIFVxZ9VsmZm56zey1dt4dd+1+jknP2aaJFTDi82/ltNPfbGn5mbD81yjE3OWt1XxmygN9e229+3kteNB8KOxm6rd2jc0mENXhu1Mme7rUONLVb1gUbrf1/ZZz3+whvW59c+U1IrHn3B/vv4d3VNrTbck1OlH0Kw/Jm+67TGaYMXFjHujT85M2edOH/Vdr29PGzwoJm/5d0Kjo1P2mD0D16r+LUPj45bB+qabegAXzmQepUDdWNze0mY4RmkGeJUwFsutNjgx0+fW7AihfTyzlrb2jjq7O6zAfG6ACOgfO1Il6ubjd870tZfFNr5+Xmru3fA2vteU9lWD/raYy/aPwv+HUDB68fXKrXw9/DvwgDXTfhesO7FXG5Y4vW15wlvmqCFJQF8T724K7DN5kDx2331NhReLB5cbLjzD287bv8XVrqQNQ36dTvC14R1xQOhGMxRQwzhoVnoIYmzOYJqhNdwwWIVghauGKDyYqWCsiCAAlbab+AG0OKhENVrhguL71fMq8Cfrd/4m0jfy03b3rHP24Ui1GmxwomDFykeBIrcop6AJ6yzmp8NiIcIgNQNWjd976nX7cBSoQcP/izq9/bXbx12ff9ghZEKI7wGCRFdGT2G6wdI4M7qAK2bYLkKWTc8cHR6rXgf4bK7QYxjSBiufCnvAO+R20I+m/Aacr6VgR1sJlgMXaF1BKvq5ilEfab0CjGsrdu5OA4rjIeGmxVGkQrh1TxvKy0uLJnO1lbddBIABLlMeOg4XoNbUA5n0qh/BnzeiCm4pZRQc014NQxOyTNua+dFIzb+Nx//1aJcJlJVupzLvXoP0pXG/0ftRkNI9cnVMzyZOICNhxd5Umm1TNj8eI3SYpny0Cn2MJI/E7wKwBT1a0EwS3o0sMCEV6MAlYzKYgOZsNFhYWUKywQ3v5yHEgKEcuHnjSOiLwFG/Tbhjbvd7eXGRe5y1LnbIN06bDTTwS1l+VAppQPA+9oGCW+cQhdQ3E92v66l3EymvHavwsNUnoPj+FlRmSXXxvqLhDcuq6uWDprkcuJcK119EwNUlQCMPHHUrwM13LL5n/DGIBTyqwsfjCkbWa44orFpBRhuu7pMr8IyEt6r16fy0hGmWC6Zg0QxQ9LBLZbPjrrkE0cW9SFiegGHcfBi9Exe9LC53YjNK89dcPWT7C6X8x4A5qiDjGopJWqgTc79GgcvplKoy5RKJNkFY4qrHyY8zpk/yngFKsLUhflchDciqXOmAIQJGxbpCmlx0mZ1i+W4Ucoa5fdXa6BNThsZBS+a1OMOegQRYTbF1Q+zkEN2UUX5WaqBq+O9o4Q3CmH4mrp07rpRi+XVQA1+bUoVWJTBoyjPvwgUqjXPhDcCNXZeMS7KLKup0m51i7VCoi466s8EkzcIbwTCjKeoP+hKpRbq0+qWPlJEkT5SHxomF2sYBa9aVWVCSaGMbCa1DDLItkj8OuwHnArv+PRNwhtF365pqRYEYdSFPCeBdW9iiPJoQXhjuJLEtC4cNaKa9vSQlzx42McLwhtzPbPuxRkAVY0yR53LNL36KkzryzNvzGki3a0Y0lisqPJf+x2m9VU7jBhtjqEs0rTzbtSDyU3tPorC+qqfDfO8EQh39qgRSZPOuyjHI5z6WF+1wsrkziJj4M30XDMKBrV6iCki/8eNMIbO4x6mJAxmJ7wh5S6ZIvIvDMsPsxhHzSuzMYHwFu0i4nm3spE1QWYWUGuelGkahDeCzcf8bmXNHEG6zpjokTeGyODLuQlvyP2qOPsSyMU3DuJsiwYB54JyPPDUC8zVgF+QrrPalIBJGhyDQ3gLRpq9DAzAWRmlgoAfX0MVIqT4MxMbG/CaAWihO3XLWUG5zupAeJNzvEbBq7YD6p4qUic1ILJZzAKh2gdglnNPr3plqQkQw0WVExv9rqB6t9UHiMmN+EbBK4es6zynuVSaCMCWC2uhpfsVoG7Xllayggj6yWDVzpYBwhtHeaTOV5u4jXdB0ArnrUqhlVY46vGplYCLAgy4/sVcYOfMG0bEWeaQTQ5WGd1VhE2gazBGXQAWG1Fe5SkvAYd7ib9XaAg73GRA4XYLn04WWLb3OUcHrw9b+QAIAl61LNL0YJVR8Mrhc2FU3oR1K4LbggXGz+D17AoLLqcvwoXW4Qws51IV+pzgAjsWttDrliNig4BXDSSaHqwybpLGzNy89nfZStfMzXUMohdZXqOpw2wsdbCb43Wo5008dCTchQCXP1+lMQ7Zoml6sMo4eNWZzbrOsCoELyxtudCinFI28gN6wOBYKnk5N/5O3EE89Twvb4RQSx7lcut1VqPUQeTKZdWb6cEq4+A9cf6q9sUPbvDCIpVbZSUthFyAwom8yu8VZw21POvLe5jknOZSU1H85srL9VQ2HOomvFHqraYe7dNFEig/gbVSEWk1gq2CHsfl1YV+bnlGxWclizTwAC70/qiWGl5HkM0OQxMzvFw77oizjtdjyk3sJxLsdhm06n6rYARtoYIaY1OscAMPHxwBij181bNxped56RWY3AZoLLwmTJCU4179pnEAgwzuwGWWKRfVHYQV1iW3W2lwKcjPWQ6+N/lyMaMvGhuemNbCTSz3KV9JEQU2MdxKRGML5Unlxoyr/VCO/QnyPaw0p696JyZPizQe3s7Lo1rfEhgkvH5a3OIqXpEPkUAroSo4HsnBCJm+64RXlxpn3Xplo4ZX1uvKKG9cAwgqKRoJsrpKPlRMbr43Ht6thzu1DlpJmKKoPQ46MhvEWb+StJWsrgrKZUZJ5Lf2dxJeBq3Ka0yIAl514iJA1uHnrqR8VQ3CVdK7LV3mjsGJxIBrJLzQ2OSs1kGrqB8uukScg/IA1IdRJZV00mWuaR0kvHHr7KVhrYNWUd/4Lt3MuIpXZEmj33iE6upWck1MXonprdvWIwe6CG/c2nvyotZBq6jhlW14caWLZKGG3xy3+hDwC690mZPQRZQIeJ890BbKiBRT4Q2iqiuMqY9+h82rLY9+z7zSZTZ5PnOi4P3Ky41ZN+hWpID4hVdti0tKeirsa17Ugg+/DSjSZV5fe57w6tgeWGzIW9LzvG7lhHHCK8/fflJ5cgROpQMRkhZlNh5edZqkTu2BQdU2656eKnbWVF1nP0MTZJGG14IP2f73UlMf4dW5WEOXgXRBlvaZCG8QN/1Vcl0MvBC1oSNJtcyJgVfOtNKlWENuvCDv2TEFXvkeeC3YqCQAJwNVh7quEV7dizXiKgss5fJFlXPVCV55E58cieM1buCl1FI2/CcxUJUIeHU89wbZXWNiwKpQi6AXAP3288pAVdfQjcSCazy88twblYsadpoj7v7XMAJXXivhVMtd7iQNebXK9lP9hFfnJgU13xtFTtXL+NOoLkSTPb26FK3IqK8X66vmactJBcqHxeTsfKLBNR5eqHdoXKtzr/r0j2o8bVxBMq8lil6sr1plVU6nlMwNN/aMEF7ddai1Py8tEXedcxB1uZUWNeg0VVNNGxUa81rq+FFOp5ScC52E0a6Jh1fWOQdxG0FQmzWqyi8UQuh6d7EMIpVrfb3MxJINEUkPVCUGXnkNit9i+DBqe6PqNdZhkoYX61vO2dcLvDI9tLH+IuE1RepQurgtT9TwyrE7Ol7Ahgopr5HncuFNq9VNDLzyJoW4+lnjgFcWheh64baMPJfKDKjwIm1Eq5tQeB/dcVIb66PCG4ULq553db2/yTWVU6Lqqpw5Vmm2uomBV5ZKRhXlLbXpilmMoCqrdLmryM8VoMUesgj2lYI3zVY3UfCqNwjGmS6RI2nCvPRapojivCWw3IeNWjlVrONI/XtuHoy0ukm5PCyV8MqUUVz1vTI1EiZQquXxWvwflxYVU7iUPsriDrdJKdLqJr0UMtHwQpMzc1pM11Bd2bBurJdtc2F9nzCsrwqem/WVFWMyCEerm0B4Vdc5zpvi5Y31YVhEmTuNM8Je6ZRJ6RbL6ir5/tHqJhBeXVxnuTmDHhQg3UodCzO89t2qk1DUohNZH06rm1B4pevsZ35SGFVPQUedZdRW90CVF+srYwbqxWky4JVmq5tIeKXrHFcQRwZmgvIC5AaO826iMKyvfDCpxwE5mTJted3Ewytd57ga093SIkG06slUlI4XrfmNzMP6FkoRySIPzGJOQ+dQquDVKeosR+Lg/FapJxBFMCzOpoVCUWY5JaO+eyTV4CYWXlmwEWahhNfNWUlKZ9Et75pXVPmxvm7NC/LvjE7OJeqeXcJbxHWOs9YZ6SqU9wXh6kpLHnfvclhNCzJGoNaLJ+12e8JbwnWOO6iDGVPqec2vBVY3cSVXaOpYuKEeB9QHXNqbD1IJrzoWNsqbC8pt3XMCMuW69LJvN840WBQ9v/g1PAvVa0nqhWGEV+iJ3ae1Kx9EpFhaYPw/KopKWVEJvw7jXaN4wKXl9gPCW+QmwTjLJYtNiFALOZDjLOQhqC1ySYgylzt7mUGqlMK7o7Fbq5wo3EBpeQuBjPMtQHek/jsTyyG9nH/lJEgGqVIILy7hVofTxTnfCjlLCW6m51qed1DugnuJ9AlcZxNLI4ud6/GzyeAVrC5hTRm8boGrODY7QFOvncRCLtp5jY9VZ+z/Vx80XhYeCghg6TJsPYhLueVCA0JN66D1yIGusjc33GzczXuwY8jK9F23+kan8r7mlbFpo2ujEw+vDFxF7XICKJnnxbTLQp4ChulhkHz3lTHPVhkPCF0H0BV7f6SlLbUAMkAEkKi0cnS8d9T+fWj25q3yHny3bht7+Xbi4ZWjYaO8iBtuoCy+x/UsgLSS6ZjluNUmn2/xEEJ2AD+H9FjCWK0D44TXFOsbRb0zNqasDLp6fcq+HK3Shw/cZCf4hgeRGon2exu9DgPpAKpbCgxHHQzTl+2AXhcsPL6n/FxgwQmvQdY37LOvOpLVDpZNztojar2+7oMtfYs2uNvUDAmC7mNxZNcVfl3OAwcPK0Tf8fMBQunZOA8v/JkTsVePEm65dlOnTqYGXml9vd4XW5FFmZu3g1JeX/Pm2vZFm7LYmVZ2HOlsfeUMrijSeLLH2mSXOVXwulnfMKqUZPMA7g9Go4Sfh41693A5twzIe3p1rsKK8mZDWHn5QMXqGZ40uvAjVfDCbVWBCHpcqpx6iPXakS5fXVEybVSOGyzrn3V2ndX7d8O86QHHIxntdxocTK/YShW88j7fIDc4zmLyLIXzqpfX9vC244ten9f0lin9vmoZZBjFM/BC3FJQSA0h78siDUOrrtSrUYLoOHLL5apFGKXc470nL9oppEJN6eV6B7JpPW3w4nOAO+4WxHIqtZ5v7GWFlcnaergzPxKc3Tx+z1xyiLidiroyVjCXiyDUkbZ+G1Z5ppULrqUXt142PZgCLzwWnEkRxPISZAOs+DeozioErGNtG3tGPFVnEV6NhbriIHK/Msc6PDG9KJf79L4z9vcrBav6MPEabJJN64WuCdFFMtdaKNXjJi8VWYgmJ7UHOLXwwjICtEIzgv20r2F6h5rLxfeQD4liwOLr+SlvdDtv6w5vMUtZ6UL5JCztU3U9bExIqpB7ldYQrqofcPF1YGEL9RO7nWXxvVACWElDASxuoRJCneENuuwRaZ99bYOpGgebanghpHIWuVqdFwuevfD7snoKC+do+WBwixrDsgaVnirViaNrjTN+/ryofMeQ3RyA5gJ0+hQ6tzpNBwDVaUbY2TKQ2ib91MPrBLCkBYYbijSSE0RBRBqWzM1iIFpcahBAkBMs4Sa7nfuki64rvPA0eGUJ4Q1MiAL76adFv3Ahl3wRXFlXu5Lb/PAAKTQmxskpm1BhJUsjk5S+Ibwx1j8XyrcuGlUzM1eyesqt4MIZRSsL5osBC6tdKMKK14EHj/M9i91rq+ugOU6EJLyBWmG077kt/D7ytOW29kn32W0VSomUWsgnoypL/X4mwCvz0QSR8IYiRJBRa+ynuUCtqZZNEZUsfC0Z2XaD95ltB7Uv0BifvkkQCa8ZqSm40n6GziEnjX9bqrVQXc9VN2hfoIHoMkEkvMYVicA9B5AQztqqYF3x+4iEl9sLDAuvrl+8c0pLeNU6cF5fQngpF3jf+LBLS3jzimJ6Rwki4aUkvG82XdA+x4uqKIJIeAmvhPfERe1zvLwJgfBSuWb+PHibL2kHLwpH8nqpE948QHipsiXhvf/7L2l9MwIvDyO8lCHwqrOrJmfnCSHhpdzg3Z3R7zZBdXgBc7yEl1KEWueF4QKdg9rBq15v0jE4QQgJL+VIHa7XfHFYO3jViR+YdkEICS/lAu/p3mHmeAkvZSK8l65NaAWvHErPHC/hpRSp/cj9Ize0gldeBcMcL+GlFJ29NKzcTDijFbwYK8QcL+GlCghjedTbCXWCFwP41NsLCCDhpYqM3tF1VjMmQBJAwksVGbuj0x296uRNtgISXqrEhdyVDHQPUniIyFnNBJDwUmLmlrqQntEBXnnxN9NEhJcq0dOL9AzTRISXMrA5wevlaVGkiXB1CeEjvFSJKivcq6RbNxFu8SN8hJdyEYaxL1RZXR1hNxHhpUws1JicntFuYiRu9yN8hJdyEW4tVFdQV4r6FS5XUxeu5SR8hJcqI9dbyc2EYUSaN9ZfJHyElyonXRR3rle93oRzqwgvVULqZeHVBz/UprIq03ed4BFeqpjUK0pbzvXFmN/t4EXahJfy29cLKxxH0OrxF97IA5f5XcJL+Qhavbbrg0jBxcOit38o7zVsP9VP6AgvVc4VopMzNxfAGRmbjNT6njjdlQcu+3cJL+VBb5/Jb8zHVSNxpIZQy8xGBMJLedDXd2Ss8emPrO/8/K3Q00ZyThXdZcJL+XGdtzdbLzX12ZZvYa7V7JwdSAojJaTOqHLWoa5rBI3wUn7gxYdc0zqYBxQA/u2++kBv/puZvUlwCS8VNLwQbieQC5bS75gcWG+4yGMTk4u+Liw965cJLxUQvBC6edwWem1x6XUhkAEqglCAFaWOk1PTVqGFka4sxCC8VMDwQhj8NnvzVkH4cBEYAHWkTnwstvA1OVSO8FIhwgutrz1vdQ3dsIJYqJqCS/7IgS4CFR+89dXc8OmA19GGQ912o4CaTiq1+kanrNaBcTsYxdytJvDe/4ujG7nh0wWvtMZIK+Fc7AhuMH4P4r1C+mn1nrb9d+DdXL+WGz698FJGWt5NOXjrVnDDE17KHK2q6Vhnw7v8mdol3PCElzLIbd7VvqLKWQxaEV7KGA1UqeuBLQ0ruekJL2XCebd9Q5Vc920+0saNT3gpzVVzZskieJdvObKOG5/wUjpb3c7qKrf198/tv+u+LQ3N3PyEl9IQ3N3t06vfbFtaVWh9cVP9svs2N0wTAMJL6aWv1bSvqSq16D4TXsoQd9ltsVmB8FL6pIZcg1SF1l//4t27ef4lvFTsZZCj39jTeU+V10WACS9lILgEmPBSBoNLgAkvZTC4KsDLtzRsJxiElwo1l9v8jZqOZVVhLPT+Mg9MeKlwenS/t7/rrqow15e2HLmHddCElwqucuqhPW2rqqJauXPwVoJCeClN3eSSbvSmugdphQkv5T0otTANI+6FksqsJR4lOISXKqmtniqmIgH4mdoldKUJL1XYRX5o19nlVTovO6DFsTqEl1qYsVxWRxAhpggvoQ0YYrrThDc97rHx0Mr1wPMNSwExizwIb0J1dPXujpVVSV7IEd+p1GKKifCan/JBZVRsudo4133PH1lOa0x4TbSycI1DL2c0yRpnN95Rwkd4dZ1okVor6yVfbLvVHMVDeDUB9p93tz9IMgky4TUgxbN6b+fGQHtqCfIdkNFXzFJMwhv0GfahPZ1PEtgIg10PbDqynudkwuvHusIdRivet3d0302aYly47QGXpT2wuWHT/VvqLxBewru4Z7azGp08DDgZEb2uW3Hf5oYNOC+nLRWVdnjtJoCsZf367va1dIUTsHCVyxc21a+BdU76QL2UwTsAq4qrLxEVZu41TUUiL9Svcix0UlzuJMIL1zf73/dhUVfvblsPULXri+WKf2FCCKz0R263WaWcJsOLkkNCyhX4QnMFwM5N0dyAlkcbbs1SVwbAe/QOoJ1POu6u9o3qXMl3w+25Xo4rrgAeZUorLngf2tPWBihVMBHhBZwQ0zJcxi+74AQWPCd7BpgD+wL0tkX/SB5cd7/wIv/pwOcI1UaAUJUDI8Robjzr/wFkCAuA4LFAmwAAAABJRU5ErkJggg==;" vertex="1" parent="1">
          <mxGeometry x="92.31" y="200" width="45.38" height="60" as="geometry" />
        </mxCell>
        <mxCell id="USZ9KHrKZH-KBfqmZn_r-4" value="todo_items_events" style="shape=image;verticalLabelPosition=bottom;labelBackgroundColor=default;verticalAlign=top;aspect=fixed;imageAspect=0;image=http://assets.stickpng.com/thumbs/584809c9cef1014c0b5e4909.png;" vertex="1" parent="1">
          <mxGeometry x="240" y="55" width="60" height="60" as="geometry" />
        </mxCell>
        <mxCell id="USZ9KHrKZH-KBfqmZn_r-7" style="edgeStyle=orthogonalEdgeStyle;rounded=0;orthogonalLoop=1;jettySize=auto;html=1;exitX=0.5;exitY=1;exitDx=0;exitDy=0;" edge="1" parent="1" source="USZ9KHrKZH-KBfqmZn_r-2" target="USZ9KHrKZH-KBfqmZn_r-2">
          <mxGeometry relative="1" as="geometry" />
        </mxCell>
        <mxCell id="USZ9KHrKZH-KBfqmZn_r-10" value="" style="endArrow=classic;html=1;rounded=0;fillColor=#b1ddf0;strokeColor=#10739e;" edge="1" parent="1">
          <mxGeometry width="50" height="50" relative="1" as="geometry">
            <mxPoint x="730" y="320" as="sourcePoint" />
            <mxPoint x="800" y="320" as="targetPoint" />
          </mxGeometry>
        </mxCell>
        <mxCell id="USZ9KHrKZH-KBfqmZn_r-11" value="DB Write" style="edgeLabel;html=1;align=center;verticalAlign=middle;resizable=0;points=[];" vertex="1" connectable="0" parent="USZ9KHrKZH-KBfqmZn_r-10">
          <mxGeometry x="-0.2286" relative="1" as="geometry">
            <mxPoint x="3" y="10" as="offset" />
          </mxGeometry>
        </mxCell>
      </root>
    </mxGraphModel>
  </diagram>
</mxfile>
